# xmcd
#
# Track frame offsets:
#	150
#	14218
#	29224
#	41999
#	58399
#	75293
#	92162
#	104955
#	120853
#	135073
#	147143
#	162701
#	178911
#
# Disc length: 2538 seconds
#
# Revision: 1
# Processed by: cddbd v1.4PL0 Copyright (c) Steve Scherf et al.
# Submitted via: audiograbber 1.82.02
#
DISCID=bf09e80d
DTITLE=Derailers - Jackpot
DYEAR=1996
DGENRE=Country
TTITLE0=My Heart's Ready
TTITLE1=This Big City
TTITLE2=I'm Your Man
TTITLE3=Where Ya Been
TTITLE4=Lies, Lies, Lies
TTITLE5=Vision To Dream On
TTITLE6=Jackpot
TTITLE7=Swan Song
TTITLE8=She Left Me Cold
TTITLE9=100% Pure Fool
TTITLE10=Tarnished Love
TTITLE11=Desperate Ways
TTITLE12=Just One More Time
EXTD=
EXTT0=
EXTT1=
EXTT2=
EXTT3=
EXTT4=
EXTT5=
EXTT6=
EXTT7=
EXTT8=
EXTT9=
EXTT10=
EXTT11=
EXTT12=
PLAYORDER=
